# xmcd
#
# Track frame offsets: 
#        183
#        25758
#        40985
#        59103
#        89940
#        117573
#        139743
#        162498
#
# Disc length: 2494 seconds
#
# Revision: 2
# Processed by: cddbd v1.4PL0 Copyright (c) Steve Scherf et al.
# Submitted via: ExactAudioCopy v0.95a2
#
DISCID=7a09bc08
DTITLE=Zucchero - UYKKEPO Live at the Kremlin - CD 1
DYEAR=1991
DGENRE=Italienisch
TTITLE0=Overdose (d'amore)
TTITLE1=Nice (Nietzsche) Che Dice
TTITLE2=Il Mare...
TTITLE3=Iruben Me
TTITLE4=Diamante
TTITLE5=Con Le Mani
TTITLE6=Diavolo in me
TTITLE7=Imagine (with Randy Crawford)
EXTD=
EXTT0=
EXTT1=
EXTT2=
EXTT3=
EXTT4=
EXTT5=
EXTT6=
EXTT7=
PLAYORDER=
